<svg width="887" height="660" viewBox="0 0 887 660" fill="none" xmlns="http://www.w3.org/2000/svg">
<path d="M886.286 84.583C884.376 72.4521 878.824 61.1882 870.366 52.285C861.908 43.3818 850.943 37.2598 838.926 34.7308L692.61 2.57611C676.919 -0.845955 660.677 -0.858799 644.981 2.53843C629.285 5.93566 614.501 12.6637 601.63 22.2677L169.162 337.334L48.0211 332.348C38.2828 332 28.6823 334.728 20.5831 340.147C12.4839 345.565 6.29786 353.398 2.90358 362.532C-0.490707 371.666 -0.920648 381.638 1.67482 391.03C4.27029 400.423 9.75921 408.758 17.362 414.854L141.992 512.813C156.948 531.009 166.919 527.52 414.435 392.67L437.616 627.473C438.002 633.879 440.197 640.043 443.948 645.25C447.699 650.456 452.85 654.492 458.803 656.886C463.087 658.579 467.658 659.425 472.263 659.379C481.534 659.095 490.388 655.465 497.189 649.159L556.763 594.82C562.695 589.324 566.713 582.075 568.229 574.132L622.817 277.511C711.803 227.659 796.053 180.798 856.125 146.649C866.873 140.603 875.519 131.422 880.908 120.331C886.298 109.24 888.174 96.7686 886.286 84.583ZM831.448 103.278C769.133 138.673 681.892 188.276 588.17 239.623L577.95 245.356L519.872 561.17L483.231 594.571L455.812 312.906L422.66 329.856C243.94 429.56 184.367 458.474 163.927 467.448L56.7452 382.45L183.37 387.934L632.039 62.3987C639.092 57.1263 647.178 53.4018 655.768 51.4689C664.359 49.536 673.261 49.4383 681.892 51.182L827.709 82.5889C829.956 82.9963 832.015 84.1106 833.584 85.7696C835.153 87.4286 836.152 89.5454 836.434 91.8115C836.947 94.0047 836.739 96.3049 835.841 98.3705C834.943 100.436 833.402 102.157 831.448 103.278Z" fill="#F2F2F2" fill-opacity="0.07"/>
<path d="M169.162 193.759L257.899 218.685L298.778 189.023L199.073 160.109L243.94 132.69L380.286 128.702L437.616 87.0756L243.94 93.0579C237.834 92.7276 231.766 94.2013 226.492 97.2953L160.936 135.432C155.517 138.643 151.169 143.386 148.44 149.064C145.712 154.742 144.725 161.1 145.605 167.338C146.485 173.576 149.191 179.413 153.383 184.115C157.575 188.817 163.066 192.173 169.162 193.759Z" fill="#F2F2F2" fill-opacity="0.07"/>
</svg>
