<svg width="34" height="32" viewBox="0 0 34 32" fill="none" xmlns="http://www.w3.org/2000/svg">
<path d="M17.9196 27.9221L16.5822 28.4642C16.4478 28.5186 16.3014 28.5385 16.1563 28.522C16.0111 28.5054 15.872 28.453 15.7515 28.3695C15.631 28.286 15.533 28.1741 15.4666 28.044C15.4001 27.914 15.3673 27.7699 15.371 27.6249L15.5929 19.1615L10.6848 21.0246L9.81834 23.8935C9.65963 24.4559 9.4698 24.7548 8.78154 25.0338L7.88127 25.3987C7.74067 25.4611 7.58653 25.4886 7.43191 25.479C7.2773 25.4693 7.12676 25.4228 6.99306 25.3432C6.80543 25.2304 6.57251 25.0045 6.52251 24.568L6.01265 20.5953C6.00895 20.5656 6.00675 20.5353 6.00578 20.5051C6.00523 20.5024 6.00415 20.4999 6.00259 20.4976C5.9812 20.4757 5.96106 20.4526 5.94225 20.4285L3.43042 17.2409C3.16103 16.9021 3.16628 16.5868 3.21847 16.3814C3.25349 16.2435 3.3207 16.116 3.41469 16.0094C3.50868 15.9028 3.62683 15.82 3.75963 15.7677L4.71014 15.3823C5.22407 15.174 5.82027 15.2025 6.27079 15.456L8.8992 16.8657L13.7578 14.8113L7.50935 8.98562C7.4022 8.8857 7.32155 8.76101 7.27479 8.62296C7.22802 8.48491 7.21663 8.33791 7.24164 8.19538C7.26666 8.05285 7.32729 7.91936 7.418 7.80709C7.5087 7.69483 7.62658 7.60738 7.76086 7.55273L9.11277 7.00467C9.30298 6.932 9.50782 6.90313 9.71208 6.92019C9.91635 6.93724 10.1148 6.9998 10.2927 7.10321L19.7981 12.1971L22.6682 10.9441C22.8758 10.8464 23.4629 10.6037 23.599 10.5485C26.3758 9.42458 28.4141 9.6543 29.0515 11.1654C29.2521 11.6409 29.4342 12.5996 28.4003 13.6756C27.7902 14.3115 26.8603 14.8851 25.6365 15.3812C25.5019 15.4358 24.9129 15.6698 24.6925 15.7456L21.7581 16.8446L18.6834 27.0385C18.6316 27.2342 18.5361 27.4153 18.4039 27.5682C18.2717 27.7211 18.1061 27.8421 17.9196 27.9221Z" fill="black"/>
</svg>
