<svg width="23" height="22" viewBox="0 0 23 22" fill="none" xmlns="http://www.w3.org/2000/svg">
<path d="M11.0399 10.8226C9.52192 10.8226 8.22243 10.2927 7.14144 9.23301C6.06045 8.1733 5.51995 6.89939 5.51995 5.41129C5.51995 3.92319 6.06045 2.64928 7.14144 1.58957C8.22243 0.529856 9.52192 0 11.0399 0C12.5579 0 13.8574 0.529856 14.9384 1.58957C16.0194 2.64928 16.5599 3.92319 16.5599 5.41129C16.5599 6.89939 16.0194 8.1733 14.9384 9.23301C13.8574 10.2927 12.5579 10.8226 11.0399 10.8226ZM2.75998 21.6452C2.00098 21.6452 1.35147 21.3805 0.811433 20.8511C0.270477 20.3207 0 19.6836 0 18.9395V17.8573C0 17.0907 0.201479 16.3858 0.604435 15.7428C1.00647 15.1007 1.54099 14.6105 2.20798 14.2723C3.63397 13.5733 5.08296 13.0489 6.55494 12.6989C8.02693 12.3499 9.52192 12.1754 11.0399 12.1754C12.5579 12.1754 14.0529 12.3499 15.5249 12.6989C16.9969 13.0489 18.4458 13.5733 19.8718 14.2723C20.5388 14.6105 21.0733 15.1007 21.4754 15.7428C21.8783 16.3858 22.0798 17.0907 22.0798 17.8573V18.9395C22.0798 19.6836 21.8098 20.3207 21.2698 20.8511C20.7288 21.3805 20.0788 21.6452 19.3198 21.6452H2.75998Z" fill="black"/>
</svg>
